<?xml version="1.0" encoding="UTF-8"?> <svg xmlns="http://www.w3.org/2000/svg" xmlns:xlink="http://www.w3.org/1999/xlink" version="1.1" id="Layer_1" x="0px" y="0px" viewBox="0 0 1428.4 548.5" style="enable-background:new 0 0 1428.4 548.5;" xml:space="preserve"> <style type="text/css"> .st0{fill:#ED2135;} .st1{display:none;fill:#ED2135;} .st2{fill:#FFFFFF;} </style> <g id="Group_265_00000053527189733169326480000005876234688971345054_" transform="translate(925.53 509.689)"> <path class="st0" d="M-647.9-220L-647.9-220c-25.4-0.4-50.3,6.7-71.6,20.4v-129.5c0-3.3-2.7-6-6-6h-66.2c-3.3,0-6,2.7-6,6V26 c0,3.3,2.7,6,6,6c0,0,0,0,0,0h53.7c1.9,0,3.6-0.9,4.8-2.4l6.9-9.1c1.9-2.5,5.3-3.1,7.9-1.5C-657.9,57-578,38.6-540.1-22 c12.9-20.6,19.7-44.4,19.7-68.6v-0.1C-520.5-160.9-577.7-219-647.9-220z M-649.8-37.1c-28.3,0-51.1-22.9-51.1-51.2c0,0,0,0,0,0 c0-28.2,22.9-51.1,51.2-51.1c14.1,0,26.9,5.7,36.2,15c9.2,9.3,15,22,15,36.2C-598.7-60-621.6-37.1-649.8-37.1z"></path> <path id="Path_50_00000086688686052945307580000003499652376812990886_" class="st1" d="M-832-24.6c0.1-0.9,0.1-1.7,0.1-2.6 c0-14.2-11.5-25.6-25.6-25.7c0,0,0,0,0,0c-11.1,0-20.9,7.1-24.4,17.6c-4.5-13.4-19-20.7-32.4-16.3c-10.5,3.5-17.6,13.3-17.6,24.4 c0,0.9,0,1.7,0.1,2.6c0,0,0,0.1,0,0.1c0.8,8.6,6.5,36.1,44.3,55.8c3.4,1.8,7.5,1.8,11,0c37.9-19.7,43.5-47.2,44.3-55.8L-832-24.6 L-832-24.6z"></path> </g> <path class="st0" d="M1013.8,72.8l-1.4,12.3c-0.5,1.5-1.2,2.9-1.6,4.4c-8.9,36-47.9,59.6-83.9,50.3c-8.5-2.2-16.5-6.1-25.2-9.3 c0,0,0,0,0,0c0,0-0.5,0.5-0.9,1c-19.1,26.1-38.1,52.2-57.2,78.2c-1.5,2.1-1.2,3.4,0.1,5.4c5.4,8.6,6.9,17.8,4,27.7 c-2.6,8.8-8.4,15-15.9,20.1c4.9,9.5,10.2,18.6,14.4,28.2c3.3,7.5,7.8,11.2,16.2,13.1c29.6,6.6,49.4,33.9,47.7,64.1 c-1.8,30.2-25.1,54.8-55.4,58.4c-2.5,0.3-4.9,0.7-7.4,1l-13.2-1.5c-0.8-0.4-1.6-1-2.5-1.2c-28.3-7.8-46.7-31.6-46.5-61.9 c0.1-25.9,17.5-50.6,45.3-58.7c1.3-0.4,2.6-0.8,4.5-1.5c-6.1-11.7-11.9-23.1-17.9-34.4c-0.5-0.9-1.6-1.6-2.6-1.7 c-8.2-0.5-15.3-3.7-21.8-9c-28.4,21.5-56.8,43-85.2,64.6c-0.1-0.2-0.2-0.3-0.3-0.5c-1.8,1.5-20.3,17.9-24.9,37 c10.1,18.8,15.8,40.3,15.8,62.9v114.5c0,3.3-2.7,6-6,6h-66.2c-3.3,0-6-2.7-6-6V419.7c0-1.5-0.1-3.1-0.2-4.6 c-2.5-28.1-27.4-48.9-55.6-46.4c-25.7,2.2-46.5,26.4-46.5,52.1v115.4c0,3.3-2.7,6-6,6h-66.2c-3.3,0-6-2.7-6-6V181.2c0-3.3,2.7-6,6-6 h66.2c3.3,0,6,2.7,6,6v119.6c19.3-8.3,40.3-11.8,61.2-10.1h0c31.9,2.4,60.3,16.6,81.3,38l-0.4-0.6c0,0,22.2-6.1,40.9-20.5l0.3,0.5 c26.5-20.1,52.9-40.1,79.4-60.1c2.9-2.2,3.9-4.1,2.6-8.2c-2.4-7.3-1.5-15.4,3-21.7c2.5-3.5,2.2-6,0.6-9.2 c-9.1-17.4-18.1-34.9-27.1-52.3c-0.7-1.4-1.5-2.7-2.3-4c-1.4,0.5-2.5,0.9-3.5,1.3c-34.2,13.3-70.5-8.4-75.1-44.8 c-0.3-2.2-0.6-4.3-0.9-6.5l1.3-11.3c0.5-1.2,1.1-2.3,1.4-3.5c7-25,31.5-42.2,57.4-39.5c22.2,2.3,38.3,14,46.4,34.8 c8.2,20.9,4.1,40.2-10.7,57c-2.4,2.7-2.8,4.5-1.1,7.7c9.1,17.1,17.8,34.3,26.7,51.4c0.6,1.2,1.4,2.4,2.2,3.6 c8.4-3.1,16.6-4.7,24.8-1.3c3.5,1.4,5,0,6.9-2.6c18.2-25.1,36.5-50.2,54.9-75.2c2.5-3.4,2.5-5.4-0.2-8.8 C853.5,72.3,878.6,9.2,932.5,1.2c3.9-0.6,7.8-0.8,11.7-1.2l12.3,1.4c1,0.4,2,1,3,1.3c28.3,7.2,48.8,29.8,53,58.4 C1013.1,65,1013.4,68.9,1013.8,72.8z"></path> <g> <path class="st2" d="M1189,301.7v32.1c0,13.4-8.5,20.2-25.5,20.2c-11.4,0-19.1-3.5-23.2-10.6c-2.9-5-4.3-12.9-4.1-23.9l8.9-2.7v8.3 c0,14.8,5.1,20.7,18.5,20.7c10.9,0,16.4-4.3,16.4-12.9v-28.4L1189,301.7z M1166.8,306.1c0,2.7-2.1,4.9-4.9,4.9 c-2.7,0-4.9-2.2-4.9-4.9c0-2.7,2.3-4.9,4.9-4.9C1164.7,301.1,1166.8,303.4,1166.8,306.1z"></path> <path class="st2" d="M1244.4,335.7h-11.2c-0.9,5.2-2.9,9.4-6.2,12.8c-3.6,3.7-8.2,5.5-13.8,5.5c-4.9,0-8.6-0.9-11.1-2.5l-4-8.8 c5.3,2.4,10.3,3.5,14.9,3.3c6-0.1,10.4-4.8,11.1-10.4h-7.4c-6.4-0.1-11.3-2-14.8-5.7c-3.2-3.4-4.9-8-4.9-13.7 c0-6.3,1.4-11.3,4.2-15.2c3.3-4.7,8.3-7,14.8-7c12.1,0,18.2,7.4,18.2,22.3c0,3-0.1,6.9-0.2,11.6h10.4V335.7z M1225.2,316.3 c0-4.5-0.4-7.6-1.2-9.6c-1.3-3.1-4-4.8-7.9-4.8c-6.6,0-9.9,4.8-9.9,14.4c0,7.7,3.5,11.6,10.6,11.6h8.4L1225.2,316.3z"></path> <path class="st2" d="M1267.4,318.8c0,4.9-1.6,8.9-4.9,12.1c-3.2,3.1-7.6,4.8-13,4.8h-7.3v-7.8h6.9c6.3,0,9.4-3.2,9.4-9.7v-22.7 l8.9-2.7V318.8z M1256.4,279.4c0,2.7-2.3,4.9-4.9,4.9c-2.7,0-4.9-2.3-4.9-4.9c0-2.7,2.3-4.9,4.9-4.9 C1254.1,274.5,1256.4,276.7,1256.4,279.4z M1262.8,268.3c0,2.8-2.1,4.9-4.9,4.9c-2.7,0-4.9-2.1-4.9-4.9c0-2.7,2.3-4.9,4.9-4.9 C1260.7,263.4,1262.8,265.6,1262.8,268.3z M1269.3,279.4c0,2.7-2.3,4.9-4.9,4.9c-2.8,0-4.9-2.3-4.9-4.9c0-2.7,2.1-4.9,4.9-4.9 C1267,274.5,1269.3,276.7,1269.3,279.4z"></path> <path class="st2" d="M1298.2,335.7h-10.1c-8.1,0-12.6-4.9-12.6-12.3v-46.3l9-2.9v48.8c0,3,1.5,4.6,4.7,4.6h8.9V335.7z"></path> <path class="st2" d="M1349.8,335.7h-54v-7.8h44.7c0.1-4.9-0.1-8.4-0.4-10.4c-0.7-3.9-2.2-7-4.6-9.2c-3.2-3-7.5-4.6-12.8-4.6 c-6.9,0-12.4,2.5-16.7,7.4l-6.2-5.8l29.6-30.8h11.8l-20.6,21.6c1.4-0.2,2.8-0.3,4.2-0.3c6.6,0,12.1,2,16.6,6 c4.5,3.9,7.1,9.1,7.9,15.7C1349.7,318.8,1349.8,324.9,1349.8,335.7z"></path> <path class="st2" d="M1380.6,335.7h-10.1c-8.1,0-12.6-4.9-12.6-12.3v-46.3l9-2.9v48.8c0,3,1.5,4.6,4.7,4.6h8.9V335.7z"></path> <path class="st2" d="M1428.4,335.7h-50.4v-8h12.6c-2-0.9-2.9-4.2-2.9-10.2c0-3.9,0.9-7.2,2.7-9.8c2.3-3.3,5.7-4.9,10.2-4.9 c4.6,0,7.9,1.6,10.1,4.9c1.8,2.6,2.7,5.9,2.7,9.8c0,4.7-0.9,8.1-2.6,10.2h8.6V320c0-7.7-0.9-13.1-2.5-16.2 c-2.2-4.3-6.7-6.4-13.4-6.4h-20.7l10.4-8h11.4c9.8,0,16.6,3.2,20.3,9.8c2.5,4.6,3.7,11.5,3.7,20.7V335.7z M1406,317.5 c0-5.5-1.9-8.3-5.6-8.3c-3.7,0-5.6,2.8-5.6,8.3c0,6.9,1.9,10.4,5.6,10.4C1404.1,327.9,1406,324.5,1406,317.5z"></path> </g> <g> <path class="st2" d="M911.5,171.7H925v26.1h30.9v-26.1h13.4v65.9h-13.4V209H925v28.6h-13.5V171.7z"></path> <path class="st2" d="M1033.1,190.7v46.9h-12.9v-6.2c-4.7,4.9-10.4,7.4-17,7.4c-6.6,0-12-2.3-16.3-6.9c-4.3-4.6-6.4-10.5-6.4-17.6 c0-7.1,2.2-13,6.5-17.7c4.3-4.7,9.7-7,16.3-7c6.6,0,12.3,2.5,17,7.4v-6.2H1033.1z M997.9,202.8c-2.5,2.9-3.8,6.7-3.8,11.4 c0,4.6,1.3,8.4,3.8,11.3c2.5,2.9,5.7,4.3,9.7,4.3c3.9,0,7.2-1.4,9.7-4.3c2.5-2.9,3.8-6.7,3.8-11.3c0-4.6-1.3-8.4-3.8-11.4 c-2.5-3-5.7-4.4-9.7-4.4C1003.6,198.4,1000.4,199.8,997.9,202.8z"></path> <path class="st2" d="M1070.5,189.5c10,0,17.5,3.8,22.5,11.4l-11.2,5.3c-2.3-5.2-6-7.9-11.2-7.9c-3.7,0-6.8,1.5-9.2,4.4 c-2.4,3-3.5,6.8-3.5,11.4c0,4.6,1.2,8.4,3.5,11.4c2.4,3,5.4,4.4,9.2,4.4c5.2,0,9-2.6,11.2-7.9l11.2,5.3 c-4.9,7.5-12.4,11.2-22.5,11.2c-7.6,0-13.9-2.3-18.8-6.9c-5-4.6-7.5-10.5-7.5-17.6c0-7.1,2.5-13,7.5-17.7 C1056.7,191.8,1063,189.5,1070.5,189.5z"></path> <path class="st2" d="M1103.3,171.7h12.9V208l16.3-17.3h16.9l-21.4,21.4l21.3,25.5h-15.4l-13.9-17.5l-3.7,3.9v13.6h-12.9V171.7z"></path> <path class="st2" d="M1207.9,190.7v46.9h-12.9v-6.2c-4.7,4.9-10.4,7.4-17,7.4s-12-2.3-16.3-6.9c-4.3-4.6-6.4-10.5-6.4-17.6 c0-7.1,2.2-13,6.5-17.7c4.3-4.7,9.7-7,16.3-7s12.3,2.5,17,7.4v-6.2H1207.9z M1172.7,202.8c-2.5,2.9-3.8,6.7-3.8,11.4 c0,4.6,1.3,8.4,3.8,11.3c2.5,2.9,5.7,4.3,9.7,4.3s7.2-1.4,9.7-4.3c2.5-2.9,3.8-6.7,3.8-11.3c0-4.6-1.3-8.4-3.8-11.4 c-2.5-3-5.7-4.4-9.7-4.4S1175.2,199.8,1172.7,202.8z"></path> <path class="st2" d="M1223,190.7v-15h12.9v15h8.5v10h-8.5v22.8c0,3.1,1.5,4.7,4.5,4.7c1.5,0,3.1-0.6,4.8-1.9l3.9,8.5 c-3.4,2.6-7.3,3.9-11.7,3.9c-4.4,0-7.9-1.3-10.5-3.9c-2.6-2.6-3.9-6-3.9-10.3v-23.8h-6.2v-10H1223z"></path> <path class="st2" d="M1257.9,171.7h12.9v25.2c4.3-4.9,9.8-7.4,16.3-7.4c5.2,0,9.5,1.7,12.9,5.1c3.4,3.4,5.1,7.9,5.1,13.4v29.6 h-12.9V208c0-2.8-0.9-5-2.7-6.9c-1.8-1.8-4.1-2.7-6.7-2.7c-3.4,0.1-6.2,1.3-8.5,3.8c-2.3,2.4-3.5,5.2-3.5,8.2v27.2h-12.9V171.7z"></path> <path class="st2" d="M1361,196.6c4.9,4.6,7.4,10.5,7.4,17.6c0,7.1-2.5,12.9-7.5,17.6c-5,4.6-11.3,6.9-18.9,6.9 c-7.6,0-13.9-2.3-18.9-6.9c-5-4.6-7.5-10.5-7.5-17.6c0-7.1,2.5-13,7.5-17.7c5-4.7,11.3-7,18.9-7 C1349.6,189.5,1356,191.8,1361,196.6z M1332.9,202.8c-2.4,2.9-3.6,6.7-3.6,11.4c0,4.6,1.2,8.5,3.6,11.4c2.4,2.9,5.4,4.4,9.2,4.4 c3.7,0,6.8-1.5,9.2-4.4c2.4-3,3.6-6.8,3.6-11.4c0-4.6-1.2-8.4-3.6-11.4c-2.4-3-5.4-4.4-9.2-4.4 C1338.3,198.4,1335.3,199.8,1332.9,202.8z"></path> <path class="st2" d="M1408.7,189.5c5.2,0,9.6,1.7,13,5.1c3.4,3.4,5.1,7.9,5.1,13.4v29.6h-12.9V208c0-2.8-0.9-5-2.7-6.9 c-1.8-1.8-4.1-2.7-6.7-2.7c-3.3,0.1-6.2,1.3-8.5,3.8c-2.3,2.4-3.5,5.2-3.5,8.2v27.2h-12.9v-46.9h12.9v6.2 C1396.8,191.9,1402.2,189.5,1408.7,189.5z"></path> </g> <circle class="st0" cx="45.2" cy="496.7" r="45.2"></circle> </svg> 